<svg xmlns="http://www.w3.org/2000/svg" viewBox="0 0 512 512">
  <defs>
    <linearGradient id="grad" x1="0%" y1="0%" x2="100%" y2="100%">
      <stop offset="0%" style="stop-color:#2dd4bf;stop-opacity:1" />
      <stop offset="100%" style="stop-color:#3b82f6;stop-opacity:1" />
    </linearGradient>
  </defs>
  <rect x="0" y="0" width="512" height="512" rx="100" fill="url(#grad)"/>
  <path d="M140 140h232v232H140z" fill="none"/>
  <path fill="#ffffff" d="M368 128H144c-26.5 0-48 21.5-48 48v192c0 26.5 21.5 48 48 48h224c26.5 0 48-21.5 48-48V176c0-26.5-21.5-48-48-48zm-16 224H160V176h192v176z"/>
  <path fill="#ffffff" d="M216 224h80v64h-80z"/>
  <circle cx="180" cy="360" r="24" fill="#ffffff"/>
  <circle cx="332" cy="360" r="24" fill="#ffffff"/>
</svg>
